<?xml version="1.0" encoding="UTF-8"?>
<svg id="Ebene_1" data-name="Ebene 1" xmlns="http://www.w3.org/2000/svg" viewBox="0 0 800 800">
  <defs>
    <style>
      .cls-1 {
        fill: #fff;
      }
    </style>
  </defs>
  <g id="SVGRepo_iconCarrier" data-name="SVGRepo iconCarrier">
    <path class="cls-1" d="m799.99,397.52c-.94-76.7-23.64-151.53-65.43-215.68-41.79-64.15-100.93-114.95-170.45-146.42C494.59,3.96,417.58-6.86,342.14,4.23c-75.43,11.1-146.14,43.65-203.8,93.82-57.66,50.18-99.87,115.88-121.66,189.39-21.79,73.5-22.25,151.74-1.32,225.5,20.92,73.76,62.36,139.96,119.43,190.82,57.07,50.86,127.39,84.25,202.69,96.24v-285.25h-100v-117.22h100v-89.05c-2.32-20.7-.09-41.67,6.54-61.41,6.62-19.74,17.47-37.78,31.77-52.85,14.31-15.07,31.72-26.79,51.02-34.34,19.3-7.55,40.02-10.75,60.68-9.37,29.99.41,59.91,3.1,89.5,8.05v100.62h-50c-8.62-1.09-17.38-.22-25.62,2.54-8.25,2.77-15.77,7.37-22.01,13.45-6.24,6.09-11.04,13.5-14.05,21.71-3.01,8.21-4.15,16.98-3.33,25.69v75.97h111l-18,117.22h-92.5v281.73c94.5-15.04,180.51-63.66,242.43-137.04,61.92-73.38,95.65-166.66,95.08-262.92Z"/>
  </g>
</svg>