<?xml version="1.0" encoding="UTF-8"?>
<svg xmlns="http://www.w3.org/2000/svg" viewBox="0 0 651.32 147.39">
  <defs>
    <style>
      .cls-1, .cls-2, .cls-3 {
        fill: #fff;
      }

      .cls-4 {
        isolation: isolate;
      }

      .cls-5 {
        fill: #aa7536;
      }

      .cls-2 {
        font-size: 78.37px;
        letter-spacing: .03em;
      }

      .cls-2, .cls-3 {
        font-family: PressStart2P-Regular, 'Press Start 2P';
        mix-blend-mode: screen;
      }

      .cls-6 {
        fill: #251b14;
      }

      .cls-7 {
        fill: #c1883d;
      }

      .cls-3 {
        font-size: 66.76px;
        letter-spacing: .02em;
      }
    </style>
  </defs>
  <g class="cls-4">
    <g id="Ebene_1" data-name="Ebene 1">
      <text class="cls-2" transform="translate(177.73 81.99)"><tspan x="0" y="0">COOKIE</tspan></text>
      <text class="cls-3" transform="translate(213.07 150.82)"><tspan x="0" y="0">COLLAB</tspan></text>
    </g>
    <g id="Logo">
      <g>
        <rect class="cls-7" x="23.37" y="46.3" width="97.63" height="52.77"/>
        <rect class="cls-7" x="50.67" y="30.48" width="77.82" height="76"/>
        <rect class="cls-7" x="116.41" y="37.57" width="12.27" height="48.58"/>
        <rect class="cls-7" x="49.6" y="28.48" width="70.28" height="20"/>
        <rect class="cls-7" x="67.21" y="20.01" width="43.96" height="11.66"/>
        <rect class="cls-7" x="40.8" y="105.43" width="54.2" height="19.89"/>
        <rect class="cls-7" x="32.17" y="96.79" width="54.2" height="19.89"/>
        <rect class="cls-7" x="56.97" y="88.18" width="54.2" height="19.89"/>
        <rect class="cls-7" x="40.8" y="37.31" width="12.27" height="48.84"/>
      </g>
      <g id="Ebene_3" data-name="Ebene 3">
        <g>
          <rect class="cls-5" x="67.19" y="107.85" width="26.4" height="8.86"/>
          <rect class="cls-5" x="40.76" y="116.46" width="35.23" height="8.86"/>
          <rect class="cls-5" x="84.75" y="99.06" width="26.4" height="8.86"/>
          <rect class="cls-5" x="111.04" y="81.54" width="8.86" height="17.54"/>
          <rect class="cls-5" x="119.82" y="72.68" width="8.86" height="8.86"/>
        </g>
      </g>
      <g id="Ebene_2" data-name="Ebene 2">
        <g id="g13110">
          <path id="rect27720-6" class="cls-1" d="m58.41,11.14h8.79v8.79h-8.79v-8.79Z"/>
          <path id="rect12987" class="cls-1" d="m49.62,11.14h8.79v8.79h-8.79v-8.79Z"/>
          <path id="rect12989" class="cls-1" d="m40.83,19.93h8.79v8.79h-8.79v-8.79Z"/>
          <path id="rect12991" class="cls-1" d="m32.04,28.72h8.79v8.79h-8.79v-8.79Z"/>
          <path id="rect12993" class="cls-1" d="m23.25,37.51h8.79v8.79h-8.79v-8.79Z"/>
          <path id="rect12995" class="cls-1" d="m14.47,46.29h8.79v8.79h-8.79v-8.79Z"/>
          <path id="rect12997" class="cls-1" d="m14.47,55.08h8.79v8.79h-8.79v-8.79Z"/>
          <path id="rect12999" class="cls-1" d="m5.68,63.87h8.79v8.79H5.68v-8.79Z"/>
          <path id="rect13001" class="cls-1" d="m5.68,72.66h8.79v8.79H5.68v-8.79Z"/>
          <path id="rect13003" class="cls-1" d="m5.68,81.45h8.79v8.79H5.68v-8.79Z"/>
          <path id="rect13005" class="cls-1" d="m5.68,90.23h8.79v8.79H5.68v-8.79Z"/>
          <path id="rect13007" class="cls-1" d="m14.47,99.02h8.79v8.79h-8.79v-8.79Z"/>
          <path id="rect13009" class="cls-1" d="m14.47,107.81h8.79v8.79h-8.79v-8.79Z"/>
          <path id="rect13011" class="cls-1" d="m23.25,116.6h8.79v8.79h-8.79v-8.79Z"/>
          <path id="rect13013" class="cls-1" d="m40.83,134.17h8.79v8.79h-8.79v-8.79Z"/>
          <path id="rect13015" class="cls-1" d="m32.04,125.39h8.79v8.79h-8.79v-8.79Z"/>
          <path id="rect13017" class="cls-1" d="m49.62,134.17h8.79v8.79h-8.79v-8.79Z"/>
          <path id="rect13019" class="cls-1" d="m58.41,134.17h8.79v8.79h-8.79v-8.79Z"/>
          <path id="rect13021" class="cls-1" d="m67.19,134.17h8.79v8.79h-8.79v-8.79Z"/>
          <path id="rect13023" class="cls-1" d="m75.98,134.17h8.79v8.79h-8.79v-8.79Z"/>
          <path id="rect13025" class="cls-1" d="m84.77,134.17h8.79v8.79h-8.79v-8.79Z"/>
          <path id="rect13027" class="cls-1" d="m93.56,125.39h8.79v8.79h-8.79v-8.79Z"/>
          <path id="rect13029" class="cls-1" d="m102.35,125.39h8.79v8.79h-8.79v-8.79Z"/>
          <path id="rect13031" class="cls-1" d="m111.13,116.6h8.79v8.79h-8.79v-8.79Z"/>
          <path id="rect13033" class="cls-1" d="m119.92,107.81h8.79v8.79h-8.79v-8.79Z"/>
          <path id="rect13035" class="cls-1" d="m128.71,99.02h8.79v8.79h-8.79v-8.79Z"/>
          <path id="rect13037" class="cls-1" d="m137.5,90.23h8.79v8.79h-8.79v-8.79Z"/>
          <path id="rect13039" class="cls-1" d="m137.5,81.45h8.79v8.79h-8.79v-8.79Z"/>
          <path id="rect13041" class="cls-1" d="m137.5,72.66h8.79v8.79h-8.79v-8.79Z"/>
          <path id="rect13043" class="cls-1" d="m137.5,63.87h8.79v8.79h-8.79v-8.79Z"/>
          <path id="rect13045" class="cls-1" d="m137.5,55.08h8.79v8.79h-8.79v-8.79Z"/>
          <path id="rect13047" class="cls-1" d="m137.5,46.29h8.79v8.79h-8.79v-8.79Z"/>
          <path id="rect13049" class="cls-1" d="m137.5,37.51h8.79v8.79h-8.79v-8.79Z"/>
          <path id="rect13055" class="cls-1" d="m111.13,11.14h8.79v8.79h-8.79v-8.79Z"/>
          <path id="rect13057" class="cls-1" d="m102.35,2.35h8.79v8.79h-8.79V2.35Z"/>
          <path id="rect13059" class="cls-1" d="m93.56,2.35h8.79v8.79h-8.79V2.35Z"/>
          <path id="rect13061" class="cls-1" d="m84.77,2.35h8.79v8.79h-8.79V2.35Z"/>
          <path id="rect13063" class="cls-1" d="m75.98,2.35h8.79v8.79h-8.79V2.35Z"/>
          <path id="rect13065" class="cls-1" d="m67.19,2.35h8.79v8.79h-8.79V2.35Z"/>
        </g>
        <rect class="cls-1" x="128.68" y="28.71" width="8.79" height="8.86"/>
        <rect class="cls-1" x="119.9" y="19.86" width="8.79" height="8.86"/>
      </g>
      <g>
        <rect class="cls-6" x="23.26" y="46.3" width="8.78" height="17.59"/>
        <rect class="cls-6" x="14.6" y="63.96" width="8.78" height="35.07"/>
        <rect class="cls-6" x="32.04" y="37.44" width="8.79" height="8.86"/>
        <rect class="cls-6" x="102.32" y="55.12" width="8.79" height="8.86"/>
        <rect class="cls-6" x="58.4" y="99.02" width="8.79" height="8.86"/>
        <rect class="cls-6" x="40.83" y="63.77" width="17.58" height="17.61"/>
        <rect class="cls-6" x="84.74" y="72.64" width="17.58" height="17.61"/>
        <rect class="cls-6" x="75.96" y="28.64" width="17.58" height="17.61"/>
        <rect class="cls-6" x="32.17" y="116.54" width="8.79" height="8.86"/>
        <rect class="cls-6" x="23.37" y="98.95" width="8.79" height="17.64"/>
        <rect class="cls-6" x="111.15" y="98.88" width="8.79" height="17.71"/>
        <rect class="cls-6" x="102.37" y="107.66" width="8.79" height="17.71"/>
        <rect class="cls-6" x="93.59" y="107.66" width="8.79" height="17.71"/>
        <rect class="cls-6" x="76" y="116.46" width="17.72" height="17.71"/>
        <rect class="cls-6" x="40.83" y="28.66" width="8.79" height="8.86"/>
        <rect class="cls-6" x="111.11" y="19.94" width="8.79" height="8.86"/>
        <rect class="cls-6" x="119.89" y="28.71" width="8.79" height="8.86"/>
        <rect class="cls-6" x="40.8" y="125.31" width="35.23" height="8.86"/>
        <rect class="cls-6" x="119.89" y="81.49" width="8.79" height="26.21"/>
        <rect class="cls-6" x="128.67" y="37.57" width="8.79" height="61.49"/>
        <rect class="cls-6" x="49.6" y="19.89" width="17.61" height="8.86"/>
        <rect class="cls-6" x="67.21" y="11.16" width="43.96" height="8.86"/>
      </g>
    </g>
  </g>
</svg>